<mxfile host="Electron" agent="Mozilla/5.0 (Macintosh; Intel Mac OS X 10_15_7) AppleWebKit/537.36 (KHTML, like Gecko) draw.io/24.7.8 Chrome/128.0.6613.36 Electron/32.0.1 Safari/537.36" version="24.7.8">
  <diagram id="5r-AybqYqvPgYRBz9XB_" name="第 1 页">
    <mxGraphModel dx="1434" dy="854" grid="1" gridSize="10" guides="1" tooltips="1" connect="1" arrows="1" fold="1" page="1" pageScale="1" pageWidth="1169" pageHeight="827" math="0" shadow="0">
      <root>
        <mxCell id="0" />
        <mxCell id="1" parent="0" />
        <mxCell id="VKJ7fNzhDjni7mW2-3Zz-5" value="" style="rounded=0;whiteSpace=wrap;html=1;strokeColor=none;fontFamily=Helvetica;fontSize=11;fontColor=default;labelBackgroundColor=default;" vertex="1" parent="1">
          <mxGeometry x="110" y="110" width="480" height="210" as="geometry" />
        </mxCell>
        <mxCell id="4yo1tMU4cYYm51vijppw-1" value="&lt;font face=&quot;Comic Sans MS&quot; style=&quot;font-size: 16px;&quot;&gt;&lt;b&gt;Service&lt;/b&gt;&lt;/font&gt;" style="rounded=1;whiteSpace=wrap;html=1;fillColor=#d5e8d4;strokeColor=#82b366;sketch=1;strokeWidth=1;fontSize=13;" parent="1" vertex="1">
          <mxGeometry x="275" y="135" width="120" height="40" as="geometry" />
        </mxCell>
        <mxCell id="dfXlQ-R2WkFTmiEwaYlZ-2" style="edgeStyle=orthogonalEdgeStyle;rounded=0;orthogonalLoop=1;jettySize=auto;html=1;strokeWidth=2;endArrow=block;endFill=0;dashed=1;exitX=0.5;exitY=0;exitDx=0;exitDy=0;" parent="1" source="4yo1tMU4cYYm51vijppw-4" target="4yo1tMU4cYYm51vijppw-1" edge="1">
          <mxGeometry relative="1" as="geometry" />
        </mxCell>
        <mxCell id="4yo1tMU4cYYm51vijppw-4" value="&lt;font face=&quot;Comic Sans MS&quot; style=&quot;font-size: 16px;&quot;&gt;&lt;b&gt;ServiceImpl&lt;/b&gt;&lt;/font&gt;" style="rounded=1;whiteSpace=wrap;html=1;fillColor=#dae8fc;strokeColor=#6c8ebf;sketch=1;strokeWidth=1;fontSize=13;" parent="1" vertex="1">
          <mxGeometry x="395" y="255" width="145" height="40" as="geometry" />
        </mxCell>
        <mxCell id="4yo1tMU4cYYm51vijppw-10" value="" style="shape=curlyBracket;whiteSpace=wrap;html=1;rounded=1;labelBackgroundColor=none;strokeColor=default;fontSize=14;fontFamily=Comic Sans MS;sketch=1;" parent="1" vertex="1">
          <mxGeometry x="410" y="120" width="20" height="70" as="geometry" />
        </mxCell>
        <mxCell id="VKJ7fNzhDjni7mW2-3Zz-1" value="&lt;div style=&quot;background-color: rgb(255, 255, 255); color: rgb(8, 8, 8); font-size: 16px;&quot;&gt;&lt;pre style=&quot;font-family: &amp;quot;JetBrains Mono&amp;quot;, monospace;&quot;&gt;&lt;span style=&quot;color:#0033b3;&quot;&gt;void &lt;/span&gt;perform();&lt;/pre&gt;&lt;/div&gt;" style="text;whiteSpace=wrap;html=1;fontFamily=Helvetica;fontSize=11;fontColor=default;labelBackgroundColor=default;" vertex="1" parent="1">
          <mxGeometry x="430" y="120" width="150" height="70" as="geometry" />
        </mxCell>
        <mxCell id="VKJ7fNzhDjni7mW2-3Zz-3" style="edgeStyle=orthogonalEdgeStyle;shape=connector;rounded=0;orthogonalLoop=1;jettySize=auto;html=1;exitX=0.5;exitY=0;exitDx=0;exitDy=0;entryX=0.5;entryY=1;entryDx=0;entryDy=0;dashed=1;strokeColor=default;strokeWidth=2;align=center;verticalAlign=middle;fontFamily=Helvetica;fontSize=11;fontColor=default;labelBackgroundColor=default;endArrow=block;endFill=0;" edge="1" parent="1" source="VKJ7fNzhDjni7mW2-3Zz-2" target="4yo1tMU4cYYm51vijppw-1">
          <mxGeometry relative="1" as="geometry" />
        </mxCell>
        <mxCell id="VKJ7fNzhDjni7mW2-3Zz-4" style="edgeStyle=orthogonalEdgeStyle;shape=connector;rounded=0;orthogonalLoop=1;jettySize=auto;html=1;strokeColor=default;strokeWidth=2;align=center;verticalAlign=middle;fontFamily=Helvetica;fontSize=11;fontColor=default;labelBackgroundColor=default;endArrow=open;endFill=0;" edge="1" parent="1" source="VKJ7fNzhDjni7mW2-3Zz-2" target="4yo1tMU4cYYm51vijppw-4">
          <mxGeometry relative="1" as="geometry" />
        </mxCell>
        <mxCell id="VKJ7fNzhDjni7mW2-3Zz-2" value="&lt;font face=&quot;Comic Sans MS&quot; style=&quot;font-size: 16px;&quot;&gt;&lt;b&gt;StaticProxyImpl&lt;/b&gt;&lt;/font&gt;" style="rounded=1;whiteSpace=wrap;html=1;fillColor=#dae8fc;strokeColor=#6c8ebf;sketch=1;strokeWidth=1;fontSize=13;" vertex="1" parent="1">
          <mxGeometry x="130" y="255" width="145" height="40" as="geometry" />
        </mxCell>
      </root>
    </mxGraphModel>
  </diagram>
</mxfile>
